<?xml version="1.0" standalone="no"?>
<!DOCTYPE svg PUBLIC "-//W3C//DTD SVG 20010904//EN"
 "http://www.w3.org/TR/2001/REC-SVG-20010904/DTD/svg10.dtd">
<svg version="1.0" xmlns="http://www.w3.org/2000/svg"
 width="626.000000pt" height="626.000000pt" viewBox="0 0 626.000000 626.000000"
 preserveAspectRatio="xMidYMid meet">
<metadata>
Created by potrace 1.16, written by Peter Selinger 2001-2019
</metadata>
<g transform="translate(0.000000,626.000000) scale(0.100000,-0.100000)"
fill="#000000" stroke="none">
<path d="M3147 4188 c-10 -442 -9 -686 4 -694 6 -3 14 -2 19 2 5 5 12 228 16
497 7 481 7 487 -13 487 -19 0 -20 -10 -26 -292z"/>
<path d="M2812 4413 c3 -21 55 -235 116 -477 62 -241 112 -440 112 -442 0 -10
31 -2 35 9 3 6 -48 221 -113 477 -98 383 -122 466 -136 468 -16 3 -18 -2 -14
-35z"/>
<path d="M3494 4417 c-2 -7 -63 -218 -134 -468 -104 -368 -126 -456 -116 -467
19 -20 28 -2 63 123 17 61 75 264 128 453 53 188 95 349 91 357 -7 18 -25 20
-32 2z"/>
<path d="M2484 4315 c-3 -7 28 -74 69 -147 109 -194 126 -225 172 -308 187
-339 224 -400 240 -400 27 0 16 31 -62 168 -75 134 -164 293 -313 559 -72 129
-95 157 -106 128z"/>
<path d="M2247 4156 c-114 -41 -186 -155 -175 -280 l3 -40 113 98 c63 54 115
96 117 94 2 -2 -36 -53 -85 -113 -49 -61 -89 -113 -90 -117 0 -5 26 -8 58 -8
135 1 245 104 259 244 7 67 -10 122 -40 130 -38 10 -120 6 -160 -8z"/>
<path d="M3848 4163 c-24 -6 -42 -77 -34 -136 16 -139 132 -242 265 -235 l60
3 -75 90 c-42 50 -85 103 -97 120 l-22 30 30 -22 c17 -12 71 -56 120 -99 l90
-77 3 61 c7 150 -117 274 -271 271 -29 -1 -60 -3 -69 -6z"/>
<path d="M3585 3903 c-65 -109 -151 -254 -192 -322 -68 -113 -83 -159 -51
-149 17 6 389 630 386 647 -7 39 -35 6 -143 -176z"/>
<path d="M1671 3968 c-19 -18 -45 -57 -59 -87 -21 -45 -24 -64 -20 -120 3 -39
14 -83 26 -107 21 -40 105 -124 125 -124 9 0 6 86 -9 255 -7 87 8 52 47 -107
l33 -138 28 27 c33 32 68 119 68 171 0 85 -52 184 -119 226 -64 41 -82 41
-120 4z"/>
<path d="M4520 3993 c-44 -17 -103 -70 -130 -116 -56 -98 -47 -221 22 -301
l33 -38 34 138 c40 165 54 195 47 104 -3 -36 -8 -107 -11 -158 l-6 -93 28 15
c150 78 177 302 53 424 -34 32 -42 35 -70 25z"/>
<path d="M2460 3834 c0 -9 75 -93 168 -187 92 -94 184 -188 205 -210 23 -24
43 -37 52 -33 8 3 15 9 15 13 0 19 -408 433 -426 433 -8 0 -14 -7 -14 -16z"/>
<path d="M1970 3663 c-84 -177 -115 -343 -107 -573 6 -177 26 -278 81 -416
171 -425 551 -729 997 -794 138 -20 380 -9 503 24 374 100 679 352 837 691 85
184 119 337 119 545 0 201 -31 351 -105 514 -30 66 -38 76 -60 76 -40 0 -40
-25 0 -112 75 -164 110 -377 94 -578 -7 -93 -40 -254 -60 -291 -7 -13 -39 -17
-203 -22 -211 -7 -502 -34 -722 -68 -77 -11 -155 -23 -176 -26 -20 -3 -76 2
-125 11 -221 39 -580 75 -856 84 l-192 7 -18 55 c-38 120 -49 217 -44 390 5
187 29 299 93 440 39 85 39 110 1 110 -20 0 -30 -12 -57 -67z m550 -1023 c136
-12 355 -38 390 -47 19 -4 -3 -13 -85 -32 l-110 -27 -75 23 c-42 12 -132 38
-200 57 -142 40 -129 44 80 26z m1320 -26 c-134 -37 -509 -160 -627 -205 l-72
-28 -138 51 c-76 28 -141 54 -145 57 -9 8 259 64 432 92 182 30 506 64 620 67
52 1 48 -1 -70 -34z m-1450 -59 c270 -72 658 -202 643 -215 -4 -4 -55 -28
-112 -53 l-104 -46 -141 88 c-78 48 -212 128 -298 176 -149 82 -181 103 -140
91 9 -3 78 -21 152 -41z m1675 35 c-3 -5 -10 -10 -16 -10 -10 0 -214 -113
-349 -193 -134 -79 -414 -267 -540 -361 -81 -60 -123 -86 -143 -86 -56 0 -232
42 -321 76 -50 19 -92 36 -93 38 -6 6 302 154 457 219 252 106 578 216 875
296 124 33 139 35 130 21z m-1867 -66 c161 -85 289 -159 430 -247 l114 -70
-104 -53 c-57 -30 -108 -54 -114 -54 -6 0 -43 22 -81 49 -39 28 -74 47 -78 43
-4 -4 -5 -2 -4 3 2 6 -35 48 -82 95 -47 47 -108 119 -136 160 -56 84 -87 140
-77 140 4 0 63 -30 132 -66z m1962 -10 c-18 -31 -59 -89 -92 -130 -167 -207
-398 -354 -654 -415 -91 -21 -244 -39 -244 -28 0 18 348 256 556 382 141 85
457 257 462 252 2 -2 -10 -29 -28 -61z"/>
<path d="M2200 3709 c-56 -25 -96 -62 -123 -114 -18 -36 -40 -115 -31 -115 3
0 61 27 131 60 69 33 128 59 129 57 2 -2 -48 -41 -111 -87 -63 -47 -111 -88
-107 -92 15 -14 114 -25 158 -17 76 14 158 80 186 148 17 42 27 115 17 132
-25 48 -170 64 -249 28z"/>
<path d="M3853 3710 c-42 -19 -43 -20 -43 -69 0 -110 88 -215 200 -238 48 -9
146 -1 161 14 6 6 -36 42 -106 93 -63 46 -113 85 -111 87 2 2 60 -24 130 -57
69 -33 128 -60 130 -60 11 0 -17 95 -38 129 -67 106 -212 152 -323 101z"/>
<path d="M3545 3549 c-85 -84 -155 -156 -155 -161 0 -5 7 -11 16 -15 11 -4 61
39 170 148 85 85 153 158 151 163 -9 28 -40 5 -182 -135z"/>
<path d="M1428 3504 c-34 -73 -32 -181 5 -256 35 -71 98 -130 171 -157 52 -19
116 -28 116 -16 0 3 -30 60 -68 127 -37 68 -73 137 -80 153 l-12 30 22 -26
c13 -14 64 -76 115 -137 l91 -112 13 37 c21 62 15 153 -13 215 -53 116 -142
178 -265 186 l-73 5 -22 -49z"/>
<path d="M4644 3529 c-114 -44 -195 -158 -196 -280 -1 -35 4 -81 11 -101 l12
-38 96 118 c53 64 104 126 115 137 18 19 19 19 12 1 -4 -11 -40 -80 -81 -153
-40 -74 -73 -137 -73 -140 0 -3 22 -3 49 0 98 12 192 81 238 175 37 75 39 182
6 255 l-22 47 -58 -1 c-32 0 -80 -9 -109 -20z"/>
<path d="M2510 3513 c0 -13 44 -44 148 -105 82 -49 154 -88 160 -88 7 0 12 8
12 18 0 11 -46 44 -143 102 -154 92 -177 102 -177 73z"/>
<path d="M3607 3416 c-81 -45 -151 -86 -157 -92 -5 -5 -6 -15 0 -24 8 -12 14
-11 47 7 75 42 109 60 185 102 88 48 104 63 86 79 -10 8 -52 -11 -161 -72z"/>
<path d="M3068 3386 c-142 -38 -224 -181 -184 -318 56 -194 304 -251 436 -101
128 145 64 363 -123 418 -59 18 -67 18 -129 1z m184 -71 c116 -82 122 -253 12
-343 -157 -130 -391 21 -340 219 17 62 55 111 108 138 64 33 162 26 220 -14z"/>
<path d="M2201 3318 c-91 -26 -185 -118 -212 -210 -12 -41 -13 -145 -2 -175 8
-21 18 -12 131 107 67 71 122 126 122 122 0 -5 -39 -68 -86 -141 -103 -161
-104 -161 -71 -161 128 0 258 94 302 219 27 78 11 218 -28 243 -17 11 -114 8
-156 -4z"/>
<path d="M3908 3323 c-27 -7 -43 -63 -43 -148 0 -69 4 -88 30 -139 32 -64 84
-114 151 -145 49 -23 154 -39 154 -24 0 5 -36 64 -79 130 -80 121 -101 157
-101 167 0 3 55 -53 122 -124 140 -149 142 -149 136 -4 -3 73 -7 87 -40 140
-40 65 -101 114 -172 138 -44 15 -120 19 -158 9z"/>
<path d="M2585 3017 c-124 -33 -161 -46 -163 -59 -5 -26 15 -23 194 22 158 39
182 49 170 69 -10 16 -24 14 -201 -32z"/>
<path d="M3474 3049 c-3 -6 -2 -14 2 -19 12 -11 328 -100 355 -100 14 0 19 5
17 17 -2 13 -44 29 -168 65 -176 51 -195 54 -206 37z"/>
<path d="M1465 2900 c-15 -24 43 -248 102 -395 253 -630 882 -1055 1563 -1055
676 0 1290 411 1559 1043 63 148 124 398 101 412 -20 13 -30 -9 -51 -108 -98
-480 -426 -905 -874 -1130 -470 -236 -1026 -230 -1495 15 -148 77 -250 150
-373 268 -248 236 -408 522 -477 850 -11 52 -20 98 -20 103 0 10 -28 9 -35 -3z"/>
<path d="M4392 2628 c-11 -29 -23 -60 -27 -69 -5 -14 12 -24 86 -53 51 -20 96
-33 99 -29 10 12 50 114 50 128 0 7 -8 15 -18 17 -14 4 -22 -5 -36 -43 -12
-36 -22 -49 -36 -49 -25 0 -25 7 -1 61 17 38 18 45 5 52 -20 12 -29 4 -44 -43
-15 -47 -21 -52 -39 -40 -11 6 -11 16 3 55 8 26 13 51 10 56 -13 22 -33 5 -52
-43z"/>
<path d="M1652 2605 c8 -18 17 -24 29 -20 26 9 63 -76 48 -109 -7 -15 -8 -30
-2 -40 13 -24 154 142 146 172 -5 21 -11 22 -119 22 l-114 0 12 -25z"/>
<path d="M4262 2365 c-12 -9 -35 -35 -51 -59 l-30 -43 81 -57 c75 -54 82 -56
97 -41 10 11 12 19 5 22 -6 2 -20 10 -30 17 -27 20 -2 46 46 46 23 0 43 7 53
18 26 28 21 32 -28 25 l-45 -6 0 31 c0 25 -6 35 -30 47 -36 19 -40 19 -68 0z"/>
<path d="M1934 2340 c-26 -10 -74 -66 -74 -86 0 -24 26 -78 46 -95 36 -31 59
-31 96 -1 l36 28 -27 36 c-23 31 -29 34 -44 23 -15 -11 -16 -14 -2 -25 19 -16
19 -29 0 -37 -23 -8 -55 26 -55 58 0 28 39 69 65 69 21 0 65 -40 65 -60 0 -10
9 -20 20 -23 17 -4 20 0 20 25 0 41 -57 98 -96 97 -16 0 -38 -4 -50 -9z"/>
<path d="M4043 2129 c-9 -9 -1 -26 33 -69 46 -59 52 -78 32 -98 -16 -16 -65
-15 -75 2 -23 39 -73 85 -88 80 -22 -9 -19 -17 25 -70 53 -65 81 -79 126 -64
77 26 85 90 19 170 -50 61 -56 65 -72 49z"/>
<path d="M2185 2077 c-16 -23 -44 -58 -62 -78 -29 -32 -31 -38 -18 -49 13 -11
20 -9 40 10 31 29 42 20 49 -38 9 -75 50 -102 44 -30 -2 32 1 43 12 44 8 1 23
2 32 2 26 3 52 60 40 87 -9 19 -92 95 -103 95 -2 0 -17 -19 -34 -43z"/>
<path d="M2705 1798 c-34 -29 -47 -85 -29 -126 19 -47 88 -75 138 -56 27 10 2
42 -29 37 -36 -7 -75 21 -75 55 0 63 57 92 109 56 25 -18 46 -8 36 18 -16 41
-109 51 -150 16z"/>
<path d="M3030 1700 c0 -73 3 -83 25 -105 17 -18 35 -25 64 -25 66 0 91 41 91
151 0 42 -3 49 -19 49 -17 0 -20 -10 -26 -67 -8 -76 -17 -93 -49 -93 -37 0
-46 19 -46 97 0 66 -2 73 -20 73 -18 0 -20 -7 -20 -80z"/>
</g>
</svg>
